<svg xmlns:x="http://ns.adobe.com/Extensibility/1.0/" xmlns:i="http://ns.adobe.com/AdobeIllustrator/10.0/" xmlns:graph="http://ns.adobe.com/Graphs/1.0/" xmlns="http://www.w3.org/2000/svg" xmlns:xlink="http://www.w3.org/1999/xlink" version="1.1" x="0px" y="0px" viewBox="0 0 100 100" style="enable-background:new 0 0 100 100;" xml:space="preserve"><style type="text/css">
	.st0{fill-rule:evenodd;clip-rule:evenodd;}
</style><switch><g i:extraneous="self"><g><path class="st0" d="M50,28.3c1.4,0,2.6-1.2,2.6-2.6V15.4c0-1.4-1.2-2.6-2.6-2.6c-1.4,0-2.6,1.2-2.6,2.6v10.3     C47.4,27.1,48.6,28.3,50,28.3z"></path><path class="st0" d="M26.9,30.4c0.4,1.1,1.4,1.8,2.4,1.8c0.3,0,0.5,0,0.8-0.1c1.4-0.4,2.1-1.9,1.7-3.2l-3.3-10.1     c-0.4-1.4-1.9-2.1-3.2-1.7c-1.4,0.4-2.1,1.9-1.7,3.2L26.9,30.4z"></path><path class="st0" d="M11.2,43.3c0.5,0,1.1-0.2,1.5-0.5c1.1-0.8,1.4-2.5,0.5-3.6l-6.1-8.3c-0.8-1.1-2.5-1.4-3.6-0.5     C2.4,31.2,2.2,32.8,3,34l6.1,8.3C9.6,43,10.4,43.3,11.2,43.3z"></path><path class="st0" d="M96.5,30.4c-1.1-0.8-2.8-0.6-3.6,0.5l-6.1,8.3c-0.8,1.1-0.6,2.8,0.5,3.6c0.5,0.3,1,0.5,1.5,0.5     c0.8,0,1.6-0.4,2.1-1L97,34C97.8,32.8,97.6,31.2,96.5,30.4z"></path><path class="st0" d="M69.9,32c0.3,0.1,0.5,0.1,0.8,0.1c1.1,0,2.1-0.7,2.4-1.8l3.3-10.1c0.4-1.4-0.3-2.8-1.7-3.2     c-1.3-0.4-2.8,0.3-3.2,1.7l-3.3,10.1C67.8,30.1,68.5,31.6,69.9,32z"></path><path class="st0" d="M50,34.1C25.6,34.1,6.4,58,5.6,59c-0.7,0.9-0.7,2.3,0,3.2c0.8,1,20,24.9,44.4,24.9     c24.4,0,43.6-23.9,44.4-24.9c0.7-0.9,0.7-2.3,0-3.2C93.6,58,74.4,34.1,50,34.1z M50,80.6c-11,0-20-9-20-20c0-11,9-20,20-20     s20,9,20,20C70,71.6,61,80.6,50,80.6z M11,60.6c2.9-3.2,10.1-10.6,19.5-15.8c-3.5,4.3-5.6,9.8-5.6,15.8c0,6,2.1,11.5,5.6,15.8     C21.1,71.2,13.9,63.8,11,60.6z M69.5,76.4c3.5-4.3,5.6-9.8,5.6-15.8c0-6-2.1-11.5-5.6-15.8C78.9,50,86.1,57.4,89,60.6     C86.1,63.8,78.9,71.2,69.5,76.4z"></path><path class="st0" d="M50,49.1c-0.4,0-0.9,0.1-1.3,0.1c0.8,1,1.3,2.2,1.3,3.6c0,3.2-2.6,5.7-5.7,5.7c-2,0-3.7-1-4.8-2.5     c-0.6,1.4-1,2.9-1,4.6c0,6.3,5.1,11.5,11.5,11.5c6.3,0,11.5-5.1,11.5-11.5S56.3,49.1,50,49.1z"></path></g></g></switch></svg>