<?xml version="1.0" encoding="UTF-8" standalone="no"?>
<!DOCTYPE svg PUBLIC "-//W3C//DTD SVG 1.1//EN" "http://www.w3.org/Graphics/SVG/1.1/DTD/svg11.dtd">
<svg width="100%" height="100%" viewBox="0 0 1000 750" version="1.1" xmlns="http://www.w3.org/2000/svg" xmlns:xlink="http://www.w3.org/1999/xlink" xml:space="preserve" xmlns:serif="http://www.serif.com/" style="fill-rule:evenodd;clip-rule:evenodd;stroke-miterlimit:2;">
    <g id="Layer2" transform="matrix(9.93421,0,0,9.93421,3.28947,4.93421)">
        <g transform="matrix(0.100662,0,0,0.100662,-0.331126,-0.496689)">
            <path d="M992,8L992,742L290,742L290,426L8,426L8,8L992,8Z" style="fill:white;stroke:rgb(64,64,64);stroke-width:16px;"/>
        </g>
        <g transform="matrix(0.990517,0,0,0.978531,0.474172,0.308609)">
            <path d="M79.681,43L100,43L100,0L0,0L0,43L64.024,43L73.374,31.273" style="fill:none;stroke:rgb(64,64,64);stroke-width:1.64px;"/>
        </g>
        <g transform="matrix(0.706649,0,0,0.739751,28.8609,42.3854)">
            <path d="M0,0L0,43L100,43L100,0" style="fill:none;stroke:rgb(64,64,64);stroke-width:2.23px;"/>
        </g>
        <g id="logo-text">
            <g transform="matrix(0.503311,0,0,0.503311,0.172185,-0.27649)">
                <path d="M29.953,62.328C30.026,60.745 29.505,59.365 28.391,58.188C27.036,56.75 25.083,56.01 22.531,55.969L22.453,55.969C20.932,55.948 19.849,55.599 19.203,54.922C18.797,54.484 18.604,53.995 18.625,53.453C18.667,52.568 19.036,51.818 19.734,51.203C20.443,50.589 21.286,50.281 22.266,50.281C23.224,50.281 24.073,50.453 24.813,50.797C25.656,51.193 26.172,51.74 26.359,52.438C26.484,52.927 26.766,53.302 27.203,53.563C27.641,53.813 28.104,53.875 28.594,53.75C29.083,53.625 29.453,53.344 29.703,52.906C29.964,52.469 30.031,52.005 29.906,51.516C29.469,49.849 28.443,48.578 26.828,47.703C25.484,46.974 23.964,46.609 22.266,46.609C20.297,46.609 18.609,47.255 17.203,48.547C15.797,49.839 15.052,51.422 14.969,53.297C14.896,54.87 15.417,56.25 16.531,57.438C17.885,58.865 19.839,59.599 22.391,59.641C22.401,59.641 22.411,59.641 22.422,59.641C22.401,59.641 22.411,59.641 22.453,59.641L22.469,59.641C23.99,59.661 25.073,60.016 25.719,60.703C26.125,61.13 26.318,61.615 26.297,62.156C26.255,63.052 25.88,63.802 25.172,64.406C24.474,65.021 23.635,65.328 22.656,65.328C21.698,65.328 20.844,65.156 20.094,64.813C19.26,64.417 18.75,63.87 18.563,63.172C18.438,62.682 18.156,62.307 17.719,62.047C17.281,61.797 16.818,61.734 16.328,61.859C15.839,61.984 15.464,62.266 15.203,62.703C14.953,63.141 14.891,63.604 15.016,64.094C15.453,65.76 16.479,67.031 18.094,67.906C19.438,68.635 20.958,69 22.656,69C24.615,69 26.302,68.354 27.719,67.063C29.125,65.771 29.87,64.193 29.953,62.328Z" style="fill:rgb(64,64,64);fill-rule:nonzero;"/>
                <path d="M61.467,46.703C60.978,46.536 60.504,46.563 60.045,46.781C59.587,47.01 59.275,47.365 59.108,47.844L54.28,61.594L49.452,47.844C49.452,47.844 49.452,47.839 49.452,47.828C49.441,47.807 49.426,47.771 49.405,47.719C49.384,47.677 49.374,47.656 49.374,47.656C49.374,47.656 49.363,47.63 49.342,47.578C49.259,47.422 49.155,47.281 49.03,47.156C48.894,47.021 48.743,46.911 48.577,46.828C48.535,46.797 48.514,46.781 48.514,46.781C48.514,46.781 48.488,46.776 48.436,46.766C48.394,46.745 48.363,46.729 48.342,46.719L48.327,46.719L48.327,46.703C48.316,46.703 48.306,46.703 48.295,46.703C48.285,46.703 48.28,46.698 48.28,46.688C48.228,46.677 48.186,46.667 48.155,46.656L48.092,46.641C48.04,46.63 48.004,46.625 47.983,46.625L47.905,46.625C47.863,46.615 47.827,46.609 47.795,46.609L47.624,46.609C47.603,46.609 47.577,46.609 47.545,46.609C47.493,46.62 47.457,46.625 47.436,46.625C47.415,46.625 47.389,46.63 47.358,46.641C47.316,46.651 47.285,46.656 47.264,46.656C47.243,46.667 47.212,46.677 47.17,46.688C47.118,46.708 47.097,46.714 47.108,46.703C47.087,46.714 47.082,46.719 47.092,46.719C47.082,46.719 47.051,46.729 46.999,46.75L46.92,46.781C46.931,46.781 46.915,46.792 46.874,46.813C46.696,46.906 46.54,47.021 46.405,47.156C46.28,47.281 46.176,47.427 46.092,47.594C46.071,47.635 46.056,47.656 46.045,47.656C46.056,47.646 46.045,47.672 46.014,47.734C46.004,47.776 45.993,47.807 45.983,47.828L45.983,47.844L41.155,61.594L36.327,47.844C36.15,47.365 35.832,47.01 35.374,46.781C34.915,46.563 34.446,46.536 33.967,46.703C33.488,46.88 33.139,47.198 32.92,47.656C32.702,48.115 32.676,48.583 32.842,49.063L39.405,67.766C39.405,67.766 39.41,67.771 39.42,67.781C39.441,67.854 39.472,67.932 39.514,68.016C39.525,68.026 39.535,68.042 39.545,68.063C39.587,68.135 39.634,68.203 39.686,68.266C39.686,68.266 39.691,68.276 39.702,68.297C39.754,68.359 39.806,68.417 39.858,68.469C39.889,68.5 39.9,68.51 39.889,68.5C39.952,68.552 40.014,68.604 40.077,68.656C40.087,68.656 40.092,68.661 40.092,68.672C40.103,68.672 40.113,68.677 40.124,68.688C40.186,68.729 40.249,68.766 40.311,68.797C40.342,68.807 40.353,68.813 40.342,68.813C40.415,68.844 40.483,68.87 40.545,68.891C40.587,68.911 40.592,68.917 40.561,68.906C40.624,68.927 40.696,68.943 40.78,68.953C40.863,68.974 40.889,68.979 40.858,68.969C40.952,68.99 41.051,69 41.155,69C41.249,69 41.342,68.99 41.436,68.969C41.415,68.979 41.441,68.974 41.514,68.953C41.597,68.943 41.67,68.927 41.733,68.906C41.702,68.917 41.712,68.911 41.764,68.891C41.816,68.87 41.879,68.844 41.952,68.813C41.941,68.813 41.952,68.807 41.983,68.797C42.045,68.766 42.108,68.729 42.17,68.688C42.222,68.656 42.238,68.646 42.217,68.656C42.29,68.604 42.353,68.552 42.405,68.5C42.394,68.51 42.405,68.5 42.436,68.469C42.488,68.417 42.54,68.365 42.592,68.313C42.634,68.25 42.644,68.234 42.624,68.266C42.665,68.203 42.707,68.135 42.749,68.063C42.759,68.052 42.769,68.036 42.78,68.016C42.821,67.932 42.858,67.854 42.889,67.781C42.889,67.771 42.889,67.766 42.889,67.766L47.717,54.016L52.545,67.766C52.545,67.766 52.545,67.771 52.545,67.781C52.577,67.854 52.613,67.932 52.655,68.016C52.665,68.026 52.676,68.042 52.686,68.063C52.728,68.135 52.769,68.203 52.811,68.266C52.811,68.266 52.821,68.276 52.842,68.297C52.884,68.359 52.931,68.417 52.983,68.469C53.014,68.5 53.03,68.51 53.03,68.5C53.082,68.552 53.144,68.604 53.217,68.656C53.217,68.656 53.222,68.661 53.233,68.672C53.243,68.672 53.249,68.677 53.249,68.688C53.311,68.729 53.374,68.766 53.436,68.797C53.467,68.807 53.483,68.813 53.483,68.813C53.545,68.844 53.608,68.87 53.67,68.891C53.712,68.911 53.722,68.917 53.702,68.906C53.754,68.927 53.821,68.943 53.905,68.953C53.988,68.974 54.014,68.979 53.983,68.969C54.087,68.99 54.186,69 54.28,69C54.374,69 54.472,68.99 54.577,68.969C54.545,68.979 54.571,68.974 54.655,68.953C54.738,68.943 54.811,68.927 54.874,68.906C54.842,68.917 54.847,68.911 54.889,68.891C54.952,68.87 55.019,68.844 55.092,68.813C55.082,68.813 55.092,68.807 55.124,68.797C55.186,68.766 55.249,68.729 55.311,68.688C55.353,68.656 55.368,68.646 55.358,68.656C55.42,68.604 55.483,68.552 55.545,68.5C55.535,68.51 55.545,68.5 55.577,68.469C55.629,68.417 55.676,68.365 55.717,68.313C55.759,68.25 55.769,68.234 55.749,68.266C55.801,68.203 55.847,68.135 55.889,68.063C55.889,68.052 55.9,68.036 55.92,68.016C55.962,67.932 55.993,67.854 56.014,67.781L56.014,67.766L62.592,49.063C62.759,48.583 62.733,48.115 62.514,47.656C62.295,47.198 61.946,46.88 61.467,46.703Z" style="fill:rgb(64,64,64);fill-rule:nonzero;"/>
                <path d="M69.778,65.297L69.778,59.625L76.591,59.625C77.101,59.625 77.539,59.448 77.903,59.094C78.268,58.729 78.45,58.292 78.45,57.781C78.45,57.271 78.268,56.833 77.903,56.469C77.539,56.115 77.101,55.938 76.591,55.938L69.778,55.938L69.778,50.266L79.216,50.297L79.231,50.297C79.742,50.297 80.174,50.115 80.528,49.75C80.893,49.396 81.075,48.964 81.075,48.453C81.075,47.943 80.898,47.505 80.544,47.141C80.179,46.776 79.742,46.594 79.231,46.594L67.935,46.563L67.919,46.563C67.408,46.563 66.976,46.745 66.622,47.109C66.257,47.464 66.075,47.901 66.075,48.422L66.075,67.156C66.075,67.667 66.257,68.099 66.622,68.453C66.976,68.818 67.408,69 67.919,69L79.231,69C79.742,69 80.174,68.818 80.528,68.453C80.893,68.099 81.075,67.667 81.075,67.156C81.075,66.646 80.893,66.208 80.528,65.844C80.174,65.479 79.742,65.297 79.231,65.297L69.778,65.297Z" style="fill:rgb(64,64,64);fill-rule:nonzero;"/>
                <path d="M86.402,46.594C85.891,46.594 85.459,46.776 85.105,47.141C84.74,47.495 84.558,47.927 84.558,48.438L84.558,67.156C84.558,67.667 84.74,68.099 85.105,68.453C85.459,68.818 85.891,69 86.402,69L96.511,69C97.022,69 97.459,68.818 97.824,68.453C98.178,68.099 98.355,67.667 98.355,67.156C98.355,66.646 98.178,66.214 97.824,65.859C97.459,65.495 97.022,65.313 96.511,65.313L88.245,65.313L88.245,48.438C88.245,47.927 88.063,47.495 87.699,47.141C87.344,46.776 86.912,46.594 86.402,46.594Z" style="fill:rgb(64,64,64);fill-rule:nonzero;"/>
                <path d="M103.166,46.594C102.655,46.594 102.223,46.776 101.869,47.141C101.504,47.495 101.322,47.927 101.322,48.438L101.322,67.156C101.322,67.667 101.504,68.099 101.869,68.453C102.223,68.818 102.655,69 103.166,69L113.275,69C113.786,69 114.223,68.818 114.588,68.453C114.942,68.099 115.119,67.667 115.119,67.156C115.119,66.646 114.942,66.214 114.588,65.859C114.223,65.495 113.786,65.313 113.275,65.313L105.01,65.313L105.01,48.438C105.01,47.927 104.827,47.495 104.463,47.141C104.109,46.776 103.676,46.594 103.166,46.594Z" style="fill:rgb(64,64,64);fill-rule:nonzero;"/>
            </g>
            <g transform="matrix(0.503311,0,0,0.503311,27.3746,32.4466)">
                <path d="M29.953,62.328C30.026,60.745 29.505,59.365 28.391,58.188C27.036,56.75 25.083,56.01 22.531,55.969L22.453,55.969C20.932,55.948 19.849,55.599 19.203,54.922C18.797,54.484 18.604,53.995 18.625,53.453C18.667,52.568 19.036,51.818 19.734,51.203C20.443,50.589 21.286,50.281 22.266,50.281C23.224,50.281 24.073,50.453 24.813,50.797C25.656,51.193 26.172,51.74 26.359,52.438C26.484,52.927 26.766,53.302 27.203,53.563C27.641,53.813 28.104,53.875 28.594,53.75C29.083,53.625 29.453,53.344 29.703,52.906C29.964,52.469 30.031,52.005 29.906,51.516C29.469,49.849 28.443,48.578 26.828,47.703C25.484,46.974 23.964,46.609 22.266,46.609C20.297,46.609 18.609,47.255 17.203,48.547C15.797,49.839 15.052,51.422 14.969,53.297C14.896,54.87 15.417,56.25 16.531,57.438C17.885,58.865 19.839,59.599 22.391,59.641C22.401,59.641 22.411,59.641 22.422,59.641C22.401,59.641 22.411,59.641 22.453,59.641L22.469,59.641C23.99,59.661 25.073,60.016 25.719,60.703C26.125,61.13 26.318,61.615 26.297,62.156C26.255,63.052 25.88,63.802 25.172,64.406C24.474,65.021 23.635,65.328 22.656,65.328C21.698,65.328 20.844,65.156 20.094,64.813C19.26,64.417 18.75,63.87 18.563,63.172C18.438,62.682 18.156,62.307 17.719,62.047C17.281,61.797 16.818,61.734 16.328,61.859C15.839,61.984 15.464,62.266 15.203,62.703C14.953,63.141 14.891,63.604 15.016,64.094C15.453,65.76 16.479,67.031 18.094,67.906C19.438,68.635 20.958,69 22.656,69C24.615,69 26.302,68.354 27.719,67.063C29.125,65.771 29.87,64.193 29.953,62.328Z" style="fill:rgb(64,64,64);fill-rule:nonzero;"/>
                <path d="M37.702,55.953L37.702,50.234L42.374,50.234C43.29,50.234 44.071,50.516 44.717,51.078C45.363,51.641 45.686,52.313 45.686,53.094C45.686,53.865 45.374,54.531 44.749,55.094C44.124,55.646 43.368,55.932 42.483,55.953L37.702,55.953ZM35.858,46.547C35.347,46.547 34.915,46.729 34.561,47.094C34.196,47.448 34.014,47.88 34.014,48.391L34.014,67.156C34.014,67.667 34.196,68.099 34.561,68.453C34.915,68.818 35.347,69 35.858,69C36.368,69 36.806,68.818 37.17,68.453C37.525,68.099 37.702,67.667 37.702,67.156L37.702,59.641L42.28,59.641C42.342,59.651 42.374,59.656 42.374,59.656C42.384,59.656 42.446,59.651 42.561,59.641L42.624,59.641C44.499,59.578 46.092,58.917 47.405,57.656C48.728,56.385 49.389,54.865 49.389,53.094C49.389,51.292 48.702,49.75 47.327,48.469C45.962,47.188 44.311,46.547 42.374,46.547L35.858,46.547Z" style="fill:rgb(64,64,64);fill-rule:nonzero;"/>
                <path d="M58.341,60.563L61.341,53.313L64.356,60.563L58.341,60.563ZM52.919,68.859C53.148,68.953 53.382,69 53.622,69C54.445,69 55.013,68.62 55.325,67.859L56.825,64.234L65.872,64.234L67.372,67.859C67.685,68.62 68.252,69 69.075,69C69.315,69 69.549,68.953 69.778,68.859C70.247,68.661 70.58,68.328 70.778,67.859C70.966,67.391 70.966,66.922 70.778,66.453L68.794,61.688C68.794,61.688 68.794,61.682 68.794,61.672L63.044,47.797C63.023,47.745 62.997,47.693 62.966,47.641C62.966,47.63 62.95,47.604 62.919,47.563C62.888,47.521 62.872,47.495 62.872,47.484C62.872,47.474 62.851,47.448 62.81,47.406L62.763,47.344C62.763,47.333 62.742,47.307 62.7,47.266C62.669,47.234 62.653,47.214 62.653,47.203C62.632,47.193 62.606,47.172 62.575,47.141C62.544,47.109 62.523,47.094 62.513,47.094C62.502,47.083 62.476,47.063 62.435,47.031C62.393,47 62.372,46.984 62.372,46.984C62.362,46.974 62.33,46.953 62.278,46.922C62.226,46.891 62.205,46.88 62.216,46.891C62.112,46.828 61.997,46.781 61.872,46.75C61.893,46.75 61.872,46.745 61.81,46.734C61.757,46.714 61.721,46.703 61.7,46.703C61.7,46.703 61.674,46.698 61.622,46.688C61.56,46.677 61.528,46.672 61.528,46.672C61.528,46.672 61.497,46.672 61.435,46.672L61.169,46.672C61.169,46.672 61.143,46.677 61.091,46.688C61.039,46.698 61.002,46.703 60.981,46.703L60.919,46.719C60.856,46.74 60.82,46.75 60.81,46.75C60.789,46.76 60.752,46.771 60.7,46.781C60.638,46.813 60.617,46.823 60.638,46.813C60.658,46.802 60.643,46.813 60.591,46.844C60.539,46.865 60.502,46.88 60.481,46.891C60.471,46.891 60.44,46.906 60.388,46.938C60.346,46.969 60.325,46.984 60.325,46.984C60.315,46.995 60.289,47.016 60.247,47.047C60.195,47.078 60.174,47.094 60.185,47.094C60.174,47.094 60.148,47.115 60.106,47.156C60.075,47.177 60.054,47.193 60.044,47.203C60.044,47.214 60.023,47.24 59.981,47.281C59.95,47.313 59.935,47.333 59.935,47.344C59.924,47.354 59.903,47.375 59.872,47.406C59.841,47.448 59.825,47.474 59.825,47.484C59.815,47.495 59.794,47.521 59.763,47.563C59.742,47.615 59.731,47.641 59.731,47.641C59.7,47.693 59.674,47.745 59.653,47.797L53.903,61.672C53.903,61.682 53.903,61.688 53.903,61.688L51.919,66.453C51.731,66.922 51.731,67.391 51.919,67.859C52.117,68.328 52.45,68.661 52.919,68.859Z" style="fill:rgb(64,64,64);fill-rule:nonzero;"/>
                <path d="M84.12,69C87.006,69 89.516,68.031 91.652,66.094C92.027,65.75 92.225,65.323 92.245,64.813C92.266,64.302 92.105,63.859 91.761,63.484C91.417,63.099 90.99,62.896 90.48,62.875C89.969,62.854 89.527,63.016 89.152,63.359C87.735,64.651 86.058,65.297 84.12,65.297C82.068,65.297 80.313,64.568 78.855,63.109C77.397,61.651 76.667,59.896 76.667,57.844C76.667,55.781 77.397,54.021 78.855,52.563C80.313,51.104 82.068,50.375 84.12,50.375C85.818,50.375 87.334,50.891 88.667,51.922C89.074,52.224 89.532,52.344 90.042,52.281C90.542,52.219 90.949,51.984 91.261,51.578C91.574,51.172 91.699,50.714 91.636,50.203C91.563,49.703 91.329,49.297 90.933,48.984C88.923,47.443 86.652,46.672 84.12,46.672C81.048,46.672 78.417,47.766 76.23,49.953C74.053,52.13 72.964,54.76 72.964,57.844C72.964,60.917 74.053,63.547 76.23,65.734C78.417,67.911 81.048,69 84.12,69Z" style="fill:rgb(64,64,64);fill-rule:nonzero;"/>
                <path d="M99.447,65.297L99.447,59.625L106.26,59.625C106.77,59.625 107.208,59.448 107.572,59.094C107.937,58.729 108.119,58.292 108.119,57.781C108.119,57.271 107.937,56.833 107.572,56.469C107.208,56.115 106.77,55.938 106.26,55.938L99.447,55.938L99.447,50.266L108.885,50.297L108.9,50.297C109.411,50.297 109.843,50.115 110.197,49.75C110.562,49.396 110.744,48.964 110.744,48.453C110.744,47.943 110.567,47.505 110.213,47.141C109.848,46.776 109.411,46.594 108.9,46.594L97.603,46.563L97.588,46.563C97.077,46.563 96.645,46.745 96.291,47.109C95.926,47.464 95.744,47.901 95.744,48.422L95.744,67.156C95.744,67.667 95.926,68.099 96.291,68.453C96.645,68.818 97.077,69 97.588,69L108.9,69C109.411,69 109.843,68.818 110.197,68.453C110.562,68.099 110.744,67.667 110.744,67.156C110.744,66.646 110.562,66.208 110.197,65.844C109.843,65.479 109.411,65.297 108.9,65.297L99.447,65.297Z" style="fill:rgb(64,64,64);fill-rule:nonzero;"/>
                <path d="M128.336,62.328C128.409,60.745 127.888,59.365 126.774,58.188C125.42,56.75 123.466,56.01 120.914,55.969L120.836,55.969C119.315,55.948 118.232,55.599 117.586,54.922C117.18,54.484 116.987,53.995 117.008,53.453C117.05,52.568 117.42,51.818 118.118,51.203C118.826,50.589 119.67,50.281 120.649,50.281C121.607,50.281 122.456,50.453 123.196,50.797C124.039,51.193 124.555,51.74 124.743,52.438C124.868,52.927 125.149,53.302 125.586,53.563C126.024,53.813 126.487,53.875 126.977,53.75C127.466,53.625 127.836,53.344 128.086,52.906C128.347,52.469 128.414,52.005 128.289,51.516C127.852,49.849 126.826,48.578 125.211,47.703C123.868,46.974 122.347,46.609 120.649,46.609C118.68,46.609 116.993,47.255 115.586,48.547C114.18,49.839 113.435,51.422 113.352,53.297C113.279,54.87 113.8,56.25 114.914,57.438C116.269,58.865 118.222,59.599 120.774,59.641C120.784,59.641 120.795,59.641 120.805,59.641C120.784,59.641 120.795,59.641 120.836,59.641L120.852,59.641C122.373,59.661 123.456,60.016 124.102,60.703C124.508,61.13 124.701,61.615 124.68,62.156C124.638,63.052 124.263,63.802 123.555,64.406C122.857,65.021 122.019,65.328 121.039,65.328C120.081,65.328 119.227,65.156 118.477,64.813C117.644,64.417 117.133,63.87 116.946,63.172C116.821,62.682 116.539,62.307 116.102,62.047C115.664,61.797 115.201,61.734 114.711,61.859C114.222,61.984 113.847,62.266 113.586,62.703C113.336,63.141 113.274,63.604 113.399,64.094C113.836,65.76 114.862,67.031 116.477,67.906C117.821,68.635 119.341,69 121.039,69C122.998,69 124.685,68.354 126.102,67.063C127.508,65.771 128.253,64.193 128.336,62.328Z" style="fill:rgb(64,64,64);fill-rule:nonzero;"/>
            </g>
        </g>
    </g>
</svg>
