<svg xmlns="http://www.w3.org/2000/svg" xmlns:xlink="http://www.w3.org/1999/xlink" viewBox="0 0 100 100" version="1.1" xml:space="preserve" style="" x="0px" y="0px" fill-rule="evenodd" clip-rule="evenodd" stroke-linejoin="round" stroke-miterlimit="1.41421"><g transform="matrix(1.125,0,0,1.125,-6.25,-6.25)"><path d="M90,90L10,90L10.283,10L90,90ZM11.872,32.024L16.857,32.024L16.857,33.69L11.866,33.69L11.831,43.452L16.857,43.452L16.857,45.119L11.826,45.119L11.791,54.881L16.857,54.881L16.857,56.548L11.785,56.548L11.751,66.31L16.857,66.31L16.857,67.976L11.745,67.976L11.71,77.738L16.857,77.738L16.857,79.405L11.704,79.405L11.673,88.333L20.595,88.333L20.595,83.143L22.262,83.143L22.262,88.333L32.024,88.333L32.024,83.143L33.69,83.143L33.69,88.333L43.452,88.333L43.452,83.143L45.119,83.143L45.119,88.333L54.881,88.333L54.881,83.143L56.548,83.143L56.548,88.333L66.31,88.333L66.31,83.143L67.976,83.143L67.976,88.333L85.986,88.333L11.936,14.02L11.872,32.024ZM61.429,78.571L21.429,78.571L21.57,38.571L61.429,78.571ZM23.101,76.905L57.415,76.905L23.223,42.591C23.182,54.029 23.142,65.467 23.101,76.905Z" style="" fill="black"></path></g><g transform="matrix(1.125,0,0,1.125,-6.25,-6.25)"><path d="M10.391,9.778L10.458,9.826L90.175,89.826C90.216,89.885 90.237,89.898 90.245,89.973C90.258,90.086 90.189,90.196 90.081,90.233C90.055,90.242 90.027,90.242 90,90.247L10,90.247C9.975,90.243 9.948,90.243 9.924,90.235C9.849,90.21 9.789,90.151 9.765,90.076C9.757,90.051 9.757,90.025 9.753,89.999L10.036,9.999C10.041,9.972 10.041,9.944 10.05,9.918C10.078,9.838 10.147,9.778 10.229,9.759C10.256,9.753 10.284,9.756 10.311,9.755C10.338,9.762 10.364,9.77 10.391,9.778ZM10.248,89.753L89.405,89.753L10.528,10.595C10.435,36.981 10.341,63.367 10.248,89.753ZM12.043,13.797L12.11,13.845L86.161,88.159C86.177,88.182 86.197,88.202 86.209,88.227C86.258,88.329 86.229,88.456 86.14,88.526C86.081,88.573 86.057,88.568 85.986,88.58L67.976,88.58C67.951,88.576 67.924,88.576 67.9,88.568C67.825,88.544 67.766,88.484 67.741,88.41C67.733,88.385 67.733,88.359 67.729,88.333L67.729,83.39L66.556,83.39L66.556,88.333C66.552,88.359 66.552,88.385 66.544,88.41C66.52,88.484 66.46,88.544 66.386,88.568C66.361,88.576 66.335,88.576 66.31,88.58L56.548,88.58C56.522,88.576 56.496,88.576 56.471,88.568C56.397,88.544 56.337,88.484 56.313,88.41C56.305,88.385 56.305,88.359 56.301,88.333L56.301,83.39L55.128,83.39L55.128,88.333C55.124,88.359 55.124,88.385 55.116,88.41C55.092,88.484 55.032,88.544 54.957,88.568C54.933,88.576 54.906,88.576 54.881,88.58L45.119,88.58C45.094,88.576 45.067,88.576 45.043,88.568C44.968,88.544 44.908,88.484 44.884,88.41C44.876,88.385 44.876,88.359 44.872,88.333L44.872,83.39L43.699,83.39L43.699,88.333C43.695,88.359 43.695,88.385 43.687,88.41C43.663,88.484 43.603,88.544 43.529,88.568C43.504,88.576 43.478,88.576 43.452,88.58L33.69,88.58C33.665,88.576 33.639,88.576 33.614,88.568C33.54,88.544 33.48,88.484 33.456,88.41C33.448,88.385 33.448,88.359 33.444,88.333L33.444,83.39L32.271,83.39L32.271,88.333C32.267,88.359 32.267,88.385 32.259,88.41C32.234,88.484 32.175,88.544 32.1,88.568C32.076,88.576 32.049,88.576 32.024,88.58L22.262,88.58C22.236,88.576 22.21,88.576 22.186,88.568C22.111,88.544 22.051,88.484 22.027,88.41C22.019,88.385 22.019,88.359 22.015,88.333L22.015,83.39L20.842,83.39L20.842,88.333C20.838,88.359 20.838,88.385 20.83,88.41C20.806,88.484 20.746,88.544 20.672,88.568C20.647,88.576 20.621,88.576 20.595,88.58L11.673,88.58C11.647,88.576 11.621,88.576 11.596,88.568C11.521,88.544 11.462,88.484 11.438,88.409C11.43,88.384 11.43,88.358 11.426,88.332L11.457,79.404C11.461,79.379 11.462,79.352 11.47,79.328C11.494,79.253 11.554,79.194 11.628,79.17C11.652,79.162 11.679,79.162 11.704,79.158L16.61,79.158L16.61,77.985L11.71,77.985C11.685,77.981 11.658,77.981 11.634,77.973C11.559,77.949 11.499,77.889 11.475,77.814C11.467,77.789 11.467,77.763 11.463,77.737L11.498,67.975C11.502,67.95 11.502,67.924 11.51,67.899C11.534,67.825 11.594,67.765 11.668,67.741C11.693,67.733 11.719,67.733 11.745,67.729L16.61,67.729L16.61,66.556L11.751,66.556C11.725,66.552 11.699,66.552 11.674,66.544C11.599,66.52 11.54,66.46 11.515,66.385C11.508,66.361 11.508,66.334 11.504,66.309L11.538,56.547C11.542,56.521 11.542,56.495 11.55,56.471C11.575,56.396 11.634,56.337 11.709,56.313C11.733,56.305 11.76,56.305 11.785,56.301L16.61,56.301L16.61,55.128L11.791,55.128C11.765,55.124 11.739,55.124 11.714,55.116C11.64,55.091 11.58,55.031 11.556,54.957C11.548,54.932 11.548,54.906 11.544,54.88L11.579,45.118C11.583,45.093 11.583,45.066 11.591,45.042C11.615,44.968 11.675,44.908 11.749,44.884C11.774,44.876 11.8,44.876 11.826,44.872L16.61,44.872L16.61,43.699L11.831,43.699C11.806,43.695 11.779,43.695 11.755,43.687C11.68,43.663 11.62,43.603 11.596,43.528C11.588,43.503 11.588,43.477 11.584,43.452L11.619,33.69C11.623,33.664 11.623,33.638 11.631,33.614C11.656,33.539 11.715,33.48 11.79,33.456C11.814,33.448 11.841,33.448 11.866,33.444L16.61,33.444L16.61,32.271L11.872,32.271C11.846,32.267 11.82,32.267 11.795,32.259C11.721,32.234 11.661,32.174 11.637,32.099C11.629,32.075 11.629,32.048 11.625,32.023L11.689,14.019C11.693,13.992 11.694,13.963 11.703,13.937C11.731,13.858 11.799,13.797 11.881,13.779C11.908,13.773 11.936,13.776 11.964,13.774C11.99,13.782 12.017,13.79 12.043,13.797ZM22.407,82.943C22.425,82.961 22.447,82.977 22.462,82.998C22.503,83.054 22.498,83.076 22.509,83.143L22.509,88.086L31.777,88.086L31.777,83.143C31.781,83.117 31.781,83.091 31.789,83.067C31.813,82.992 31.873,82.932 31.948,82.908C31.972,82.9 31.998,82.9 32.024,82.896L33.69,82.896C33.716,82.9 33.742,82.9 33.767,82.908C33.841,82.932 33.901,82.992 33.925,83.067C33.933,83.091 33.933,83.117 33.937,83.143L33.937,88.086L43.205,88.086L43.205,83.143C43.209,83.117 43.21,83.091 43.218,83.067C43.242,82.992 43.301,82.932 43.376,82.908C43.401,82.9 43.427,82.9 43.452,82.896L45.119,82.896C45.144,82.9 45.171,82.9 45.195,82.908C45.27,82.932 45.33,82.992 45.354,83.067C45.362,83.091 45.362,83.117 45.366,83.143L45.366,88.086L54.634,88.086L54.634,83.143C54.638,83.117 54.638,83.091 54.646,83.067C54.67,82.992 54.73,82.932 54.805,82.908C54.829,82.9 54.856,82.9 54.881,82.896L56.548,82.896C56.573,82.9 56.599,82.9 56.624,82.908C56.699,82.932 56.758,82.992 56.782,83.067C56.79,83.091 56.791,83.117 56.795,83.143L56.795,88.086L66.063,88.086L66.063,83.143C66.067,83.117 66.067,83.091 66.075,83.067C66.099,82.992 66.159,82.932 66.233,82.908C66.258,82.9 66.284,82.9 66.31,82.896L67.976,82.896C68.002,82.9 68.028,82.9 68.052,82.908C68.127,82.932 68.187,82.992 68.211,83.067C68.219,83.091 68.219,83.117 68.223,83.143L68.223,88.086L85.392,88.086L12.18,14.615L12.12,31.777L16.857,31.777C16.883,31.781 16.909,31.781 16.933,31.789C17.008,31.813 17.068,31.873 17.092,31.948C17.1,31.972 17.1,31.998 17.104,32.024L17.104,33.69C17.1,33.716 17.1,33.742 17.092,33.767C17.068,33.841 17.008,33.901 16.933,33.925C16.909,33.933 16.883,33.933 16.857,33.937L12.112,33.937L12.079,43.205L16.857,43.205C16.883,43.209 16.909,43.21 16.933,43.218C17.008,43.242 17.068,43.301 17.092,43.376C17.1,43.401 17.1,43.427 17.104,43.452L17.104,45.119C17.1,45.144 17.1,45.171 17.092,45.195C17.068,45.27 17.008,45.33 16.933,45.354C16.909,45.362 16.883,45.362 16.857,45.366L12.072,45.366L12.039,54.634L16.857,54.634C16.883,54.638 16.909,54.638 16.933,54.646C17.008,54.67 17.068,54.73 17.092,54.805C17.1,54.829 17.1,54.856 17.104,54.881L17.104,56.548C17.1,56.573 17.1,56.599 17.092,56.624C17.068,56.699 17.008,56.758 16.933,56.782C16.909,56.79 16.883,56.791 16.857,56.795L12.031,56.795L11.998,66.063L16.857,66.063C16.883,66.067 16.909,66.067 16.933,66.075C17.008,66.099 17.068,66.159 17.092,66.233C17.1,66.258 17.1,66.284 17.104,66.31L17.104,67.976C17.1,68.002 17.1,68.028 17.092,68.052C17.068,68.127 17.008,68.187 16.933,68.211C16.909,68.219 16.883,68.219 16.857,68.223L11.991,68.223L11.958,77.491L16.857,77.491C16.883,77.495 16.909,77.495 16.933,77.503C17.008,77.528 17.068,77.587 17.092,77.662C17.1,77.686 17.1,77.713 17.104,77.738L17.104,79.405C17.1,79.43 17.1,79.457 17.092,79.481C17.068,79.556 17.008,79.615 16.933,79.64C16.909,79.648 16.883,79.648 16.857,79.652L11.95,79.652L11.92,88.086L20.348,88.086L20.348,83.143L20.36,83.067C20.372,83.044 20.38,83.019 20.395,82.998C20.426,82.956 20.469,82.924 20.519,82.908C20.543,82.9 20.57,82.9 20.595,82.896L22.262,82.896L22.338,82.908C22.361,82.92 22.384,82.931 22.407,82.943ZM21.678,38.349L21.745,38.397L61.603,78.397C61.645,78.456 61.666,78.469 61.674,78.544C61.687,78.657 61.617,78.767 61.51,78.805C61.484,78.814 61.456,78.814 61.429,78.818L21.429,78.818C21.403,78.814 21.377,78.814 21.352,78.806C21.277,78.782 21.218,78.722 21.194,78.647C21.186,78.622 21.186,78.596 21.182,78.571L21.323,38.571C21.328,38.543 21.328,38.515 21.337,38.489C21.365,38.41 21.434,38.349 21.516,38.331C21.543,38.325 21.571,38.328 21.598,38.326C21.625,38.334 21.651,38.341 21.678,38.349ZM21.676,78.325L60.834,78.325L21.815,39.167C21.769,52.219 21.723,65.272 21.676,78.325ZM23.33,42.369L23.397,42.417L57.59,76.73C57.606,76.753 57.626,76.773 57.638,76.798C57.687,76.901 57.658,77.027 57.569,77.098C57.51,77.145 57.486,77.14 57.415,77.152L23.101,77.152C23.076,77.148 23.049,77.148 23.025,77.14C22.95,77.115 22.89,77.055 22.866,76.98C22.858,76.956 22.858,76.929 22.854,76.904L22.976,42.59C22.98,42.563 22.981,42.535 22.99,42.509C23.018,42.429 23.086,42.369 23.168,42.35C23.195,42.344 23.223,42.347 23.251,42.346C23.277,42.353 23.304,42.361 23.33,42.369ZM23.349,76.658L56.82,76.658L23.467,43.186C23.428,54.344 23.388,65.501 23.349,76.658Z" style="" fill="black" fill-rule="nonzero"></path></g></svg>