<svg xmlns="http://www.w3.org/2000/svg" data-name="Layer 1" viewBox="0 0 1024 1024" x="0px" y="0px"><path d="M948.8 902L801.9 755.2c63-73.3 100.9-168.6 100.9-272.7 0-231.8-187.9-419.7-419.9-419.7-231.8 0-419.7 187.9-419.7 419.7s187.9 419.7 419.7 419.7c104.2 0 199.4-37.8 272.7-100.8l146.9 146.7c6.4 6.4 14.7 9.6 23.1 9.6 8.3 0 16.7-3.3 23.2-9.6 12.7-12.6 12.7-33.2 0-46.1zM128.6 482.6c0-195.3 159-354.3 354.3-354.3 195.5 0 354.4 159 354.4 354.3 0 195.5-159 354.3-354.4 354.3-195.3 0-354.3-158.9-354.3-354.3z"></path></svg>